<?xml version="1.0" encoding="utf-8"?>
<!-- Generator: Adobe Illustrator 21.0.2, SVG Export Plug-In . SVG Version: 6.00 Build 0)  -->
<svg version="1.1" id="Layer_1" xmlns="http://www.w3.org/2000/svg" xmlns:xlink="http://www.w3.org/1999/xlink" x="0px" y="0px"
	 viewBox="0 0 80.8 58.9" style="enable-background:new 0 0 80.8 58.9;" xml:space="preserve">
<style type="text/css">
	.st0{fill:#FFFFFF;}
	.st1{fill:#0A0A08;}
</style>
<g>
	<path id="e" class="st0" d="M36.8,58.7h42.5V38.6H36.8V58.7z"/>
</g>
<g>
	<path id="c" class="st0" d="M69,58.8H0.1V0H69V58.8z"/>
</g>
<g>
	<path id="a" class="st0" d="M68.4,58.8h12.4V43.5H68.4V58.8L68.4,58.8z"/>
</g>
<title>99DB8348-E3E6-4053-B91C-5EC5E99FC1DD</title>
<g>
	<g transform="translate(68.705 43.756)">
		<path class="st1" d="M5.2,15.1c-3.8,0-6-2.1-6.1-5h3.6c0,0.9,0.5,2.3,2.9,2.4c1.5,0,2.3-1,2.3-1.7c-0.2-1.3-1.5-1.4-3-1.6
			C3.4,9,2.1,8.7,1.2,8.2C0.1,7.5-0.7,6.1-0.7,4.6C-0.7,2,1.4-0.1,5-0.1c3.4,0,5.5,2,5.7,4.9H7.4c0-0.8-0.2-2-2.2-2
			C3.8,2.7,2.9,3,2.8,4c0,1.5,2.9,1.4,5,2.1c2.1,0.6,3.5,2,3.5,4C11.3,13.6,8.5,15.1,5.2,15.1"/>
	</g>
	<path class="st1" d="M8.6,34.5l11.8-7.3l6.3,11.7H10.9L8.6,34.5"/>
	<g transform="translate(.482 .286)">
		<path class="st1" d="M31.3,58.2h3.4V43.5h-3.4V58.2z M2.8,50.9c0,2.3,1.8,4.2,4,4.2s4-1.9,4-4.2s-1.8-4.3-4-4.3
			C4.6,46.7,2.8,48.6,2.8,50.9 M6.5,58.5c-3.9,0-7-3.5-7-7.6c0-4.3,3.2-7.6,7-7.6c1.5,0,2.9,0.5,4.1,1.3v-1.2H14v14.8h-3.4v-1
			C9.4,58.1,8,58.5,6.5,58.5 M52,38.5L35.6,7.7l11.8-7.4l20.5,38.2H52 M18.3,50.9c0,2.3,1.8,4.2,4,4.2c2.1,0,4-1.9,4-4.2
			s-1.8-4.3-4-4.3C20.1,46.7,18.3,48.6,18.3,50.9 M22.2,58.5c-4,0-7.1-3.5-7.1-7.6c0-4.3,3.2-7.6,7.1-7.6c1.5,0,2.9,0.5,4,1.3v-6.1
			h3.4v19.7h-3.4v-1C25.1,58,23.7,58.5,22.2,58.5"/>
	</g>
	<path class="st1" d="M22.4,21.4l11.9-7.3l13.3,24.8H35.1v3.7h-3.4v-3.7L22.4,21.4 M77.8,42.4c-0.9,0-1.7-0.8-1.7-1.8
		s0.8-1.8,1.7-1.8c0.9,0,1.7,0.8,1.7,1.8C79.5,41.6,78.7,42.4,77.8,42.4 M77.8,39.1c-0.8,0-1.4,0.7-1.4,1.6s0.6,1.6,1.4,1.6
		s1.4-0.7,1.4-1.6C79.2,39.8,78.5,39.1,77.8,39.1"/>
	<g transform="translate(36.701 38.53)">
		<path class="st1" d="M41.5,3.1l-0.4-0.8h-0.3v0.8h-0.3v-2h0.6c0.3,0,0.6,0.3,0.6,0.6s-0.2,0.5-0.4,0.5l0.4,0.9H41.5z M41.1,1.3
			h-0.3V2h0.3c0.2,0,0.3-0.1,0.4-0.3l0,0C41.5,1.5,41.3,1.3,41.1,1.3z M18.6,12.7c0,2.3,1.8,4.2,3.9,4.2s3.9-1.9,3.9-4.2
			s-1.8-4.3-3.9-4.3C20.3,8.4,18.6,10.4,18.6,12.7 M22.3,20.3c-3.9,0-7-3.5-7-7.6c0-4.3,3.2-7.6,7-7.6c1.5,0,2.9,0.5,4,1.3V5.3h3.4
			V20h-3.3v-1C25.2,19.8,23.8,20.3,22.3,20.3 M3,12.7c0,2.3,1.8,4.2,3.9,4.2c2.2,0,4-1.9,4-4.2s-1.8-4.3-4-4.3
			C4.8,8.4,3,10.4,3,12.7 M10.8,0.3h3.4V20h-3.4v-1c-1.2,0.9-2.6,1.3-4.1,1.3c-3.9,0-7-3.5-7-7.6c0-4.3,3.2-7.6,7-7.6
			c1.5,0,2.9,0.5,4.1,1.3L10.8,0.3"/>
	</g>
</g>
</svg>
