<?xml version="1.0" encoding="utf-8"?>
<!-- Generator: Adobe Illustrator 21.0.2, SVG Export Plug-In . SVG Version: 6.00 Build 0)  -->
<svg version="1.1" id="Layer_1" xmlns="http://www.w3.org/2000/svg" xmlns:xlink="http://www.w3.org/1999/xlink" x="0px" y="0px"
	 viewBox="0 0 80 50.3" style="enable-background:new 0 0 80 50.3;" xml:space="preserve">
<style type="text/css">
	.st0{filter:url(#Adobe_OpacityMaskFilter);}
	.st1{fill:#FFFFFF;}
	.st2{mask:url(#b);}
</style>
<title>B5A48AE2-D505-45EE-AC9E-C54EBAA26C56</title>
<g transform="translate(-7.75 -8)">
	<defs>
		<filter id="Adobe_OpacityMaskFilter" filterUnits="userSpaceOnUse" x="7.8" y="8" width="80" height="50.3">
			<feColorMatrix  type="matrix" values="1 0 0 0 0  0 1 0 0 0  0 0 1 0 0  0 0 0 1 0"/>
		</filter>
	</defs>
	<mask maskUnits="userSpaceOnUse" x="7.8" y="8" width="80" height="50.3" id="b">
		<g class="st0">
			<path id="a" class="st1" d="M-2.5-2.1H98v70.4H-2.5V-2.1z"/>
		</g>
	</mask>
	<path class="st2" d="M73.8,43.5c-1.3,0-2.3,1.1-2.3,2.4c0,1.3,1.1,2.4,2.4,2.4c1.3,0,2.4-1.1,2.4-2.4c0,0,0,0,0,0
		C76.2,44.5,75.2,43.5,73.8,43.5L73.8,43.5z M73.9,47.9c-1.1,0-2-0.9-2-2c0-1.1,0.9-2,2-2h0c1.1,0,2,0.9,2,2
		C75.9,47,75,47.9,73.9,47.9z M20,52.4h-1.6c-0.1,0-0.1,0-0.1,0.1l-0.7,5.6c0,0.1,0,0.1,0.1,0.1h0.3c0.1,0,0.1,0,0.1-0.1l0.3-2.3
		h1.3c0.1,0,0.2,0,0.3,0l0.8,2.3c0,0.1,0,0.1,0.1,0.1h0.3c0.1,0,0.1,0,0.1-0.1l-0.9-2.4c0.9-0.1,1.2-0.6,1.2-1.1l0.1-1
		c0-0.1,0-0.1,0-0.2C21.7,52.9,21.3,52.4,20,52.4L20,52.4z M21.2,53.7l-0.1,0.8c-0.1,0.5-0.4,0.8-1.4,0.8h-1.3l0.3-2.6H20
		c0.9,0,1.2,0.3,1.2,0.8C21.2,53.6,21.2,53.7,21.2,53.7z M31.4,52.4c-0.1,0-0.1,0-0.1,0.1l-2.1,4.9l-0.9-4.9c0-0.1,0-0.1-0.1-0.1
		h-0.3c-0.1,0-0.1,0-0.1,0.1l1,5.6c0,0.1,0.1,0.1,0.1,0.1h0.3c0.1,0,0.1,0,0.1-0.1l2.4-5.6c0-0.1,0-0.1-0.1-0.1H31.4L31.4,52.4z
		 M26.5,52.4h-2.9c-0.1,0-0.1,0-0.1,0.1l-0.7,5.6c0,0.1,0,0.1,0.1,0.1h3c0.1,0,0.1,0,0.1-0.1l0-0.2c0-0.1,0-0.1-0.1-0.1h-2.7
		l0.3-2.5H26c0.1,0,0.1,0,0.1-0.1l0-0.2c0-0.1,0-0.1-0.1-0.1h-2.4l0.3-2.2h2.6c0.1,0,0.1,0,0.1-0.1l0-0.2
		C26.6,52.4,26.6,52.4,26.5,52.4z M32.8,47.8c0.9,0,1.6-0.7,1.6-1.6V28.4h-5.3v16.1c0,0.5-0.4,0.9-0.9,0.9c-0.5,0-0.9-0.4-0.9-0.9
		l0-16.1H22v17.7c0,0.9,0.7,1.6,1.6,1.6L32.8,47.8L32.8,47.8z M13.1,42.9h5.4c1,0,1.7-0.8,1.7-1.7v-11c0-1-0.7-1.7-1.7-1.7H7.8v19.3
		h5.3L13.1,42.9L13.1,42.9z M13.1,30.8H14c0.5,0,0.9,0.4,0.9,0.9v7.9c0,0.5-0.4,0.9-0.9,0.9c0,0,0,0,0,0h-0.9V30.8L13.1,30.8z
		 M11.7,52.4H8.6c-0.1,0-0.1,0-0.1,0.1l-0.7,5.6c0,0.1,0,0.1,0.1,0.1h0.3c0.1,0,0.1,0,0.1-0.1l0.3-2.7h2.6c0.1,0,0.1,0,0.1-0.1
		l0-0.2c0-0.1,0-0.1-0.1-0.1H8.6l0.3-2.2h2.8c0.1,0,0.1,0,0.1-0.1l0-0.2C11.8,52.4,11.8,52.4,11.7,52.4L11.7,52.4z M14.8,52.4
		c-1.4,0-1.8,0.5-1.9,1.2l-0.4,3.5c0,0.1,0,0.1,0,0.2c0,0.6,0.4,1,1.7,1c1.4,0,1.8-0.5,1.9-1.2l0.4-3.5c0-0.1,0-0.1,0-0.2
		C16.5,52.8,16.1,52.4,14.8,52.4L14.8,52.4z M16,53.6L15.6,57c-0.1,0.5-0.4,0.9-1.4,0.9c-0.9,0-1.2-0.3-1.2-0.7c0,0,0-0.1,0-0.2
		l0.4-3.4c0.1-0.5,0.5-0.9,1.4-0.9c0.9,0,1.2,0.3,1.2,0.7C16,53.5,16,53.6,16,53.6z M87.5,8.4c-0.7-0.9-1.9-0.2-2.5,0.1
		c-3.9,2.3-4.5,6.4-5.8,8.7c-1.1,1.9-2.8,3.2-4.4,3.4c-1.2,0.1-2.4-0.2-3.7-0.7c-3.1-1.3-4.7-3.1-5.1-3.4c-0.8-0.6-7.2-6.9-12.4-7.1
		c0,0-0.6-1.3-0.8-1.3c-0.4,0-0.8,0.8-1,0.9c-0.3,0.1-0.7-0.9-1-0.8c-0.3,0-0.5,1-1,1.5C49.5,10,49,10,48.8,10.4
		c-0.1,0.2-0.1,0.5-0.2,0.7c-0.2,0.6-0.9,0.6-0.9,1.2c0,0.6,0.6,0.8,1.1,1.2c0.4,0.4,0.5,0.6,0.9,0.8c0.4,0.2,1.1-0.3,1.6-0.2
		c0.5,0.1,0.9,0.2,1,0.7c0.1,0.4,0,1.1-0.6,1.1c-0.2,0-1-0.3-2-0.2c-1.2,0.1-2.6,0.5-2.8,1.9c-0.1,0.8,0.9,1.7,1.8,1.5
		c0.6-0.1,0.3-0.9,0.7-1.2c0.4-0.5,3,1.6,5.4,1.6c1,0,1.7-0.3,2.5-1c0.1-0.1,0.1-0.2,0.3-0.2c0.1,0,0.2,0.1,0.3,0.1
		c1.9,1.5,3.4,4.6,10.4,4.7c1,0,2.1,0.5,3,1.3c0.8,0.8,1.3,1.9,1.8,3.1c0.7,1.8,2,3.5,3.9,5.5c0.1,0.1,1.7,1.3,1.8,1.4
		c0,0,0.1,0.3,0.1,0.4c0,1.2-0.2,4.6,2.3,4.7c0.6,0,0.5-0.4,0.5-0.7c0-0.6-0.1-1.2,0.2-1.8c0.4-0.8-0.9-1.2-0.9-3
		c0-1.3-1.1-1.1-1.7-2.1c-0.3-0.6-0.6-0.9-0.6-1.6c0.1-4.1-0.9-6.8-1.4-7.4c-0.4-0.5-0.7-0.7-0.3-0.9c2.1-1.4,2.6-2.7,2.6-2.7
		c1.1-2.6,2.1-5,3.5-6.1c0.3-0.2,1-0.8,1.4-1c1.3-0.6,2-1,2.4-1.4C87.6,10.4,88,9.2,87.5,8.4z M69.9,47.8V30.2c0-1-0.8-1.7-1.7-1.7
		h-9c-1,0-1.7,0.8-1.7,1.7v17.6h5.3v-4.8h1.8v4.8C64.6,47.8,69.9,47.8,69.9,47.8z M62.8,40.5v-8.9c0-0.5,0.4-0.9,0.9-0.9
		c0.5,0,0.9,0.4,0.9,0.9v8.9H62.8L62.8,40.5z M60.4,52.4H57c-0.1,0-0.2,0.1-0.2,0.2l0,0.4c0,0.1,0,0.1,0,0.2c0,0,0.1,0.1,0.2,0.1
		h1.2L57.5,58c0,0.1,0,0.1,0,0.2c0,0,0.1,0.1,0.2,0.1h0.5c0.2,0,0.2-0.1,0.2-0.2l0.6-4.7h1.3c0.1,0,0.2-0.1,0.2-0.2l0-0.4
		c0-0.1,0-0.1,0-0.2C60.6,52.4,60.5,52.4,60.4,52.4z M49.4,52.4h-0.5c-0.2,0-0.2,0.1-0.3,0.2L46.4,58c0,0.1,0,0.1,0,0.2
		c0,0,0.1,0.1,0.2,0.1H47c0.2,0,0.2-0.1,0.3-0.2l0.5-1.2h1.6l0.2,1.2c0,0.2,0.2,0.2,0.2,0.2h0.5c0.1,0,0.1,0,0.2-0.1
		c0,0,0-0.1,0-0.2l-1-5.3C49.7,52.5,49.6,52.4,49.4,52.4z M48.2,56L49,54l0.4,1.9H48.2z M54.1,52.4c-1.2,0-1.9,0.4-2,1.3l0,0.4
		c0,0.1,0,0.2,0,0.2c0,0.5,0.3,0.8,0.8,1.1l1.2,0.5c0.3,0.1,0.6,0.2,0.6,0.5c0,0,0,0,0,0.1l-0.1,0.4c0,0.3-0.2,0.6-1.1,0.6
		c-0.8,0-0.9-0.3-0.9-0.5c0,0,0-0.1,0-0.1l0-0.3c0-0.1,0-0.1,0-0.2c0,0-0.1-0.1-0.2-0.1h-0.5c-0.1,0-0.2,0.1-0.2,0.2l-0.1,0.5
		c0,0.1,0,0.2,0,0.2c0,0.4,0.2,1.2,1.8,1.2c1.6,0,2-0.7,2.1-1.3l0.1-0.6c0-0.1,0-0.1,0-0.2c0-0.5-0.3-0.9-0.9-1.1l-1.4-0.6
		c-0.2-0.1-0.3-0.2-0.3-0.3c0,0,0,0,0-0.1l0-0.2c0-0.3,0.2-0.6,1-0.6c0.8,0,0.9,0.3,0.9,0.5c0,0,0,0.1,0,0.1l0,0.3
		c0,0.1,0,0.1,0,0.2c0,0.1,0.1,0.1,0.2,0.1h0.5c0.1,0,0.2-0.1,0.2-0.2l0-0.4c0-0.1,0-0.1,0-0.2C55.9,53.1,55.6,52.4,54.1,52.4
		L54.1,52.4z M68,52.4h-1.6c-0.1,0-0.2,0.1-0.2,0.2L65.5,58c0,0.1,0,0.1,0,0.2c0,0,0.1,0.1,0.2,0.1h0.5c0.2,0,0.2-0.1,0.2-0.2l0.2-2
		h1.1l0.7,2c0,0.1,0.1,0.2,0.2,0.2h0.5c0.1,0,0.2,0,0.2-0.1c0,0,0-0.1,0-0.2l-0.7-2.1c0.7-0.2,1-0.6,1.1-1.2l0.1-0.8
		c0-0.1,0-0.1,0-0.2C69.9,53.3,69.7,52.4,68,52.4z M68.9,54l-0.1,0.5c-0.1,0.4-0.4,0.6-1.1,0.6h-0.9l0.2-1.9h1
		c0.8,0,0.9,0.3,0.9,0.6C68.9,53.9,68.9,53.9,68.9,54z M64.7,52.4h-2.8c-0.1,0-0.2,0.1-0.2,0.2L60.9,58c0,0.1,0,0.1,0,0.2
		c0,0,0.1,0.1,0.2,0.1h2.9c0.2,0,0.2-0.1,0.2-0.2l0-0.4c0-0.1,0-0.1,0-0.2c0-0.1-0.1-0.1-0.2-0.1H62l0.2-1.8h2
		c0.1,0,0.2-0.1,0.2-0.2l0-0.4c0-0.1,0-0.1,0-0.2c-0.1-0.1-0.1-0.1-0.2-0.1h-2l0.2-1.5h2.1c0.1,0,0.2-0.1,0.2-0.2l0.1-0.4
		c0-0.1,0-0.1,0-0.2C64.8,52.4,64.8,52.4,64.7,52.4L64.7,52.4z M43.3,31.6v16.1h5.3V31.6c0-0.5,0.4-0.9,0.9-0.9c0,0,0,0,0,0
		c0.5,0,0.9,0.4,0.9,0.9v16.1h5.3V30.2c0-1-0.8-1.7-1.7-1.7H37.9c-1,0-1.7,0.8-1.7,1.7v17.6h5.3V31.6c0-0.5,0.4-0.9,0.9-0.9
		C42.9,30.7,43.3,31.1,43.3,31.6z M39.4,52.4h-1.6c-0.1,0-0.1,0-0.1,0.1L37,58.1c0,0.1,0,0.1,0.1,0.1h0.3c0.1,0,0.1,0,0.1-0.1
		l0.3-2.3H39c0.1,0,0.2,0,0.3,0l0.8,2.3c0,0.1,0,0.1,0.1,0.1h0.3c0.1,0,0.1,0,0.1-0.1l-0.9-2.4c0.9-0.1,1.2-0.6,1.2-1.1l0.1-1
		c0-0.1,0-0.1,0-0.2C41.1,52.9,40.6,52.4,39.4,52.4z M40.6,53.7l-0.1,0.8c-0.1,0.5-0.4,0.8-1.4,0.8h-1.3l0.3-2.6h1.3
		c0.9,0,1.2,0.3,1.2,0.8C40.6,53.6,40.6,53.7,40.6,53.7z M36,52.4h-2.9c-0.1,0-0.1,0-0.1,0.1l-0.7,5.6c0,0.1,0,0.1,0.1,0.1h3
		c0.1,0,0.1,0,0.1-0.1l0-0.2c0-0.1,0-0.1-0.1-0.1h-2.7l0.3-2.5h2.4c0.1,0,0.1,0,0.1-0.1l0-0.2c0-0.1,0-0.1-0.1-0.1h-2.4l0.3-2.2H36
		c0.1,0,0.1,0,0.1-0.1l0-0.2C36.1,52.4,36.1,52.4,36,52.4L36,52.4z M46.3,53.3c0.1,0,0.2-0.1,0.2-0.2l0-0.4c0-0.1,0-0.1,0-0.2
		c0,0-0.1-0.1-0.2-0.1h-3c-0.1,0-0.2,0.1-0.2,0.2L42.5,58c0,0.1,0,0.1,0,0.2c0,0,0.1,0.1,0.2,0.1h0.5c0.2,0,0.2-0.1,0.2-0.2l0.3-2.3
		h2.2c0.1,0,0.2-0.1,0.2-0.2l0-0.4c0-0.1,0-0.1,0-0.2c0,0-0.1-0.1-0.2-0.1h-2.2l0.2-1.5L46.3,53.3L46.3,53.3z M74.2,46.1
		c0.3-0.1,0.6-0.4,0.6-0.8c0-0.5-0.4-0.8-1.1-0.8H73v2.7h0.5v-1.1l0.8,1.1H75L74.2,46.1C74.1,46.1,74.2,46.1,74.2,46.1z M73.6,45.7
		L73.6,45.7L73.6,45h0.1c0.4,0,0.6,0.1,0.6,0.4C74.2,45.6,74,45.7,73.6,45.7z"/>
</g>
</svg>
