<?xml version="1.0" encoding="utf-8"?>
<!-- Generator: Adobe Illustrator 21.0.2, SVG Export Plug-In . SVG Version: 6.00 Build 0)  -->
<svg version="1.1" id="Layer_1" xmlns="http://www.w3.org/2000/svg" xmlns:xlink="http://www.w3.org/1999/xlink" x="0px" y="0px"
	 viewBox="0 0 80 48.9" style="enable-background:new 0 0 80 48.9;" xml:space="preserve">
<title>D4DFBFC8-A823-4267-B5E9-6AE823517BF0</title>
<g>
	<path d="M77,7.8c0,0-2.2-1.9-9.4-4.7C61.3,0.6,56.5,0,56.5,0l0,14.8c0,6.3-6.6,12.9-17.8,12.9l-0.2,0h0l-0.2,0
		c-11.2,0-17.8-6.7-17.8-12.9l0-14.8c0,0-4.8,0.6-11.1,3.1C2.2,5.9,0,7.8,0,7.8c0.5,11.9,17.7,21.7,38.5,21.7h0
		C59.3,29.5,76.5,19.7,77,7.8L77,7.8z"/>
	<path d="M77,41.1c0,0-2.2,1.8-9.4,4.7c-6.3,2.5-11.1,3.1-11.1,3.1l0-14.8c0-6.3-6.6-12.9-17.8-12.9l-0.2,0h0l-0.2,0
		c-11.2,0-17.8,6.7-17.8,12.9l0,14.8c0,0-4.8-0.6-11.1-3.1C2.2,43,0,41.1,0,41.1c0.5-11.9,17.7-21.7,38.5-21.7h0
		C59.3,19.4,76.5,29.2,77,41.1z M78.6,39.1H79c0.2,0,0.2-0.1,0.2-0.1v0c0-0.1,0-0.2-0.2-0.2h-0.3V39.1z M78.4,39.8v-1.1
		c0-0.2,0-0.2,0.2-0.2h0.5c0.2,0,0.4,0.2,0.4,0.4c0,0.2-0.1,0.4-0.3,0.4c0.1,0.1,0.2,0.3,0.2,0.4c0.1,0.2-0.2,0.2-0.2,0.2
		c-0.1-0.2-0.2-0.4-0.3-0.6h-0.2v0.5c0,0.1-0.1,0.1-0.2,0.1C78.4,40,78.4,39.9,78.4,39.8z M78.9,40.2c0.5,0,0.9-0.4,0.9-1
		c0-0.5-0.4-0.9-0.9-0.9c-0.5,0-0.9,0.4-0.9,0.9C77.9,39.8,78.3,40.2,78.9,40.2z M77.7,39.2c0-0.7,0.6-1.3,1.2-1.3
		c0.7,0,1.2,0.6,1.2,1.3c0,0.7-0.5,1.3-1.2,1.3C78.2,40.5,77.7,39.9,77.7,39.2z"/>
</g>
</svg>
