<?xml version="1.0" encoding="utf-8"?>
<!-- Generator: Adobe Illustrator 21.0.2, SVG Export Plug-In . SVG Version: 6.00 Build 0)  -->
<svg version="1.1" id="Layer_1" xmlns="http://www.w3.org/2000/svg" xmlns:xlink="http://www.w3.org/1999/xlink" x="0px" y="0px"
	 viewBox="0 0 80 32.5" style="enable-background:new 0 0 80 32.5;" xml:space="preserve">
<title>vans-logo</title>
<path d="M3.4,28.6H2.2L1.9,26h1.2L3.4,28.6z M76.6,28.6h1.2l0.2-2.6h-1.2L76.6,28.6z M1.2,26H0l0.2,2.6h1.2L1.2,26z M78.5,28.6h1.2
	L80,26h-1.2L78.5,28.6z M9.5,29.3c0,0.9-0.7,1.7-1.6,1.7c0,0,0,0-0.1,0c-0.9,0-1.7-0.8-1.7-1.7c0,0,0,0,0,0v0c0-0.9,0.7-1.7,1.6-1.7
	C8.7,27.5,9.5,28.3,9.5,29.3C9.5,29.2,9.5,29.2,9.5,29.3L9.5,29.3 M4.4,29.3c0,1.8,1.5,3.3,3.5,3.3s3.5-1.5,3.5-3.3v0
	c0-1.8-1.5-3.3-3.5-3.3S4.4,27.4,4.4,29.3L4.4,29.3 M12.4,32.4h1.8v-2.3h3.1v-1.5h-3.1v-1.1h3.4v-1.5h-5.2L12.4,32.4L12.4,32.4z
	 M18.7,32.4h1.8v-2.3h3.1v-1.5h-3.1v-1.1h3.4v-1.5h-5.2L18.7,32.4L18.7,32.4z M28.9,32.4h1.8v-4.8h1.9v-1.5h-5.7v1.5h1.9L28.9,32.4
	L28.9,32.4z M33.8,32.4h1.8V30h2.3v2.4h1.8v-6.4h-1.8v2.4h-2.3v-2.4h-1.8V32.4L33.8,32.4z M40.9,32.4h5.3v-1.5h-3.5v-1h3.1v-1.4
	h-3.1v-1h3.4v-1.5h-5.2L40.9,32.4L40.9,32.4z M51.1,32.5h1.6l1.3-3.7l1.3,3.7h1.6l2.2-6.4h-1.9L56,29.7L54.7,26h-1.5l-1.2,3.7
	l-1.1-3.7h-1.9L51.1,32.5z M61,29.9l0.7-1.8l0.7,1.8H61L61,29.9z M58.2,32.4h1.9l0.5-1.1H63l0.5,1.1h1.9L62.7,26h-1.7L58.2,32.4z
	 M66.3,32.4h4.9v-1.5h-3.1v-4.8h-1.8L66.3,32.4L66.3,32.4z M72.2,32.4h4.9v-1.5H74v-4.8h-1.8L72.2,32.4L72.2,32.4z"/>
<path d="M69.3,10.1h-3.5c-0.3-0.9-0.7-1.5-2.7-1.5c-1.3,0-1.9,0.6-1.9,1.1c0,0.6,0.5,1.1,2,1.4l3.1,0.8c2.1,0.6,3.1,2.2,3.1,3.9
	c0,1-0.2,2.1-1.1,3.1c-0.7,0.7-1.7,1.6-5.1,1.6c-4.7,0-6.3-3-6.3-4.8h3.7c0.4,1.3,1.3,1.8,3,1.8c1.2,0,2.3-0.4,2.3-1.4
	c0-0.9-0.8-1.2-1.8-1.5l-2.5-0.7c-1.2-0.4-2.2-0.7-2.9-1.3c-1.9-1.6-1.7-4.4,0.3-5.9c1.1-0.8,2.3-1.2,4.1-1.2c2.1,0,3.4,0.6,4.3,1.3
	C68.3,7.5,69.3,8.9,69.3,10.1 M10.6,0c0,0.1,7.3,20.4,7.3,20.4h4.3l6.7-16.9h41.4L70.6,0H25.7l-5.5,14l-5-14L10.6,0 M46.4,13.1
	l5.4,7.3h3.4V6h-3.9v7.8L46.4,6h-3.7v14.4h3.7V13.1L46.4,13.1z M70.7,19.7c0-0.4-0.3-0.8-0.8-0.8c-0.4,0-0.8,0.3-0.8,0.8
	s0.3,0.8,0.8,0.8C70.4,20.4,70.7,20.1,70.7,19.7C70.7,19.7,70.7,19.7,70.7,19.7L70.7,19.7z M70.6,19.7c0,0.4-0.3,0.7-0.7,0.7
	c-0.4,0-0.7-0.3-0.7-0.7c0-0.4,0.3-0.7,0.7-0.7C70.3,19,70.6,19.3,70.6,19.7C70.6,19.6,70.6,19.6,70.6,19.7L70.6,19.7z M70.3,19.5
	c0-0.2-0.1-0.3-0.3-0.3c0,0,0,0,0,0h-0.4V20h0.2v-0.3H70l0.2,0.3h0.2l-0.2-0.3C70.3,19.7,70.3,19.6,70.3,19.5L70.3,19.5z M70.1,19.5
	c0,0.1-0.1,0.1-0.1,0.1c0,0,0,0,0,0h-0.2v-0.2H70C70.1,19.4,70.1,19.4,70.1,19.5C70.1,19.5,70.1,19.5,70.1,19.5L70.1,19.5z
	 M25.8,20.4h4.1l0.8-2.3h5.5l0.8,2.3h4.1L35.9,6h-4.4L25.8,20.4z M31.9,15.5l1.6-4.8l1.6,4.8H31.9L31.9,15.5z"/>
</svg>
